<?xml version="1.0" encoding="UTF-8" standalone="no"?>
<svg width="609px" height="624px" viewBox="0 0 609 624" version="1.1" xmlns="http://www.w3.org/2000/svg" xmlns:xlink="http://www.w3.org/1999/xlink">
    <!-- Generator: Sketch 42 (36781) - http://www.bohemiancoding.com/sketch -->
    <title>parlay</title>
    <desc>Created with Sketch.</desc>
    <defs></defs>
    <g id="Page-1" stroke="none" stroke-width="1" fill="none" fill-rule="evenodd">
        <g id="parlay">
            <g id="Group-3" transform="translate(39.000000, 0.000000)" fill="#EF2409">
                <path d="M428.341,366.369 C430.376,365.902 431.086,367.018 431.802,368.19 C434.379,372.402 437.132,376.514 439.538,380.82 C446.422,393.137 453.147,405.545 458.571,418.599 C461.587,425.858 464.226,433.287 465.546,441.029 C466.495,446.595 466.054,452.312 463.554,457.53 C461.869,461.047 458.971,463.765 455.271,464.913 C450.64,466.349 446.024,467.127 440.859,466.481 C421.823,464.099 405.051,456.072 388.797,446.708 C366.483,433.854 345.776,418.6 325.25,403.121 C312.33,393.378 299.514,383.492 286.823,373.454 C278.256,366.678 269.988,359.525 261.585,352.542 C250.369,343.218 239.393,333.629 228.624,323.782 C213.747,310.181 199.828,295.628 185.62,281.363 C177.527,273.238 169.67,264.874 161.81,256.521 C153.281,247.457 144.806,238.339 136.428,229.135 C127.947,219.818 119.486,210.478 111.247,200.949 C99.986,187.926 88.772,174.855 77.847,161.55 C62.552,142.922 48.302,123.503 35.447,103.097 C26.332,88.627 17.602,73.928 10.43,58.363 C6.45,49.725 2.644,40.901 1.244,31.531 C-0.041,22.923 -0.462,14.022 5.708,6.386 C8.181,3.326 11.043,1.577 14.824,1.232 C22.204,0.559 26.373,1.214 33.606,3.179 C51.616,8.073 68.273,16.066 84.519,25.085 C91.431,28.922 98.234,32.904 104.836,37.245 C106.531,38.36 107.953,39.712 109.193,41.285 C109.855,42.123 110.097,43.02 109.262,44.262 C106.145,43.403 103.679,41.164 100.918,39.58 C91.069,33.928 80.989,28.857 69.971,25.867 C63.515,24.115 57.036,23.437 50.466,25.262 C45.077,26.758 42.039,30.827 41.734,36.454 C41.386,42.873 43.074,48.925 45.224,54.757 C50.008,67.733 56.664,79.818 63.716,91.697 C72.053,105.741 81.331,119.149 90.936,132.331 C96.484,139.945 102.371,147.314 108.515,154.469 C115.847,163.006 123.093,171.616 130.452,180.128 C133.381,183.516 136.472,186.761 139.428,190.132 C146.867,198.615 154.634,206.811 162.139,215.238 C170.533,224.663 179.275,233.759 187.853,243.01 C205.291,261.818 223.485,279.877 242.004,297.592 C255.634,310.631 269.696,323.236 284.657,334.797 C293.949,341.977 302.854,349.657 312.12,356.871 C323.06,365.39 334.148,373.723 345.275,381.998 C354.264,388.683 363.529,394.989 373.01,400.958 C383.991,407.871 395.042,414.664 407.23,419.363 C414.639,422.22 422.082,424.648 430.189,424.238 C438.028,423.841 442.576,419.195 442.909,411.496 C443.315,402.137 440.067,393.746 436.419,385.458 C434.369,380.798 431.982,376.288 429.219,371.989 C428.157,370.335 427.087,368.608 428.341,366.369" id="Fill-1"></path>
            </g>
            <path d="M259.849,550.21 C259.789,555.869 256.269,559.79 250.609,561.27 C244.219,562.929 237.809,561.63 230.919,562.239 C230.729,558.05 230.849,554.119 230.829,550.19 C230.809,546.38 230.829,542.58 230.829,538.23 C237.029,538.23 242.669,538.03 248.299,538.29 C252.929,538.499 256.689,540.58 258.809,544.989 C259.159,545.72 259.479,546.47 259.859,547.29 C259.859,548.21 259.869,549.21 259.849,550.21 Z M276.669,577.98 C282.419,574.39 286.009,569.34 288.359,563.8 C292.139,554.89 291.689,545.71 287.989,536.679 C284.929,529.239 279.739,523.55 273.129,519.41 C267.749,516.05 261.939,513.83 255.119,513.999 C238.629,514.41 222.129,514.119 205.629,514.16 C204.389,514.16 202.959,513.59 201.889,514.76 C201.109,536.23 201.459,618.58 202.339,622.96 L231.959,622.96 L231.959,589.44 L249.889,589.44 C256.319,600.79 262.719,612.09 269.009,623.2 C280.019,623.2 290.499,623.2 300.989,623.19 C301.129,623.19 301.269,623.03 301.719,622.76 C293.459,607.59 284.639,593.01 276.669,577.98 L276.669,577.98 Z" id="Fill-4" fill="#FFFFFF"></path>
            <path d="M126.909,582.04 C126.729,577.13 129.229,572.989 130.299,568.559 C131.339,564.22 132.909,559.96 134.119,555.55 C135.259,555.66 135.559,556.51 135.809,557.42 C138.079,565.45 140.359,573.489 142.779,582.04 L126.909,582.04 Z M147.809,514.239 L121.339,514.239 C107.929,550.48 94.529,586.7 81.079,623.059 L112.259,623.059 C114.199,617.97 116.069,613.04 117.859,608.35 L151.259,608.35 C153.189,613.42 155.059,618.35 156.819,622.96 L188.009,622.96 C174.519,586.47 161.149,550.33 147.809,514.239 L147.809,514.239 Z" id="Fill-5" fill="#FFFFFF"></path>
            <path d="M457.799,581.989 C460.579,572.89 463.269,564.08 466.229,554.39 C469.139,564.16 471.749,572.94 474.449,581.989 L457.799,581.989 Z M479.349,514.239 L452.889,514.239 C439.539,550.33 426.169,586.489 412.669,622.97 L443.919,622.97 C445.919,618.03 447.159,612.79 449.899,608.39 L482.869,608.39 C484.749,613.38 486.599,618.309 488.359,623.01 L519.589,623.01 C506.129,586.64 492.749,550.46 479.349,514.239 L479.349,514.239 Z" id="Fill-6" fill="#FFFFFF"></path>
            <path d="M55.889,557.85 C53.189,560.749 49.709,561.66 46.229,562.01 C41.449,562.48 36.589,562.17 31.759,562.09 C31.209,562.08 30.669,561.42 30.039,560.999 L30.039,538.23 C36.139,538.23 42.109,537.83 48.009,538.35 C53.129,538.8 58.169,542.04 58.919,548.32 C58.989,548.929 59.469,549.489 59.749,550.04 C58.789,552.83 58.019,555.559 55.889,557.85 Z M88.789,542.749 C88.809,542.15 88.319,541.55 88.169,540.929 C86.159,532.88 81.179,526.71 74.819,521.91 C68.379,517.059 60.989,514.09 52.639,514.119 C35.819,514.19 18.999,514.14 2.179,514.13 L0.089,514.13 L0.089,622.999 L28.919,622.999 L28.919,618.4 C28.919,610.08 28.929,601.749 28.909,593.42 C28.909,591.76 28.639,590.01 30.769,589.21 C37.999,589.21 45.329,589.23 52.659,589.179 C54.109,589.17 55.549,589.01 57.029,588.7 C63.879,587.27 69.979,584.26 75.309,579.929 C81.549,574.88 85.739,568.36 87.949,560.499 C89.609,554.59 88.589,548.66 88.789,542.749 L88.789,542.749 Z" id="Fill-7" fill="#FFFFFF"></path>
            <path d="M569.85,623.019 L538.958,623.019 L538.958,585.52 C532.588,573.833 526.21,562.299 519.995,550.677 C515.468,542.211 511.158,533.628 506.745,525.101 C504.904,521.544 502.355,518.357 501.123,514.286 L535.188,514.286 C542.171,526.092 547.852,538.71 554.448,551.377 C562.041,539.378 567.064,526.257 573.927,514.343 L608.152,514.343 C606.11,518.478 604.48,522.33 602.342,525.875 C601.246,527.692 600.2,529.54 599.205,531.404 C592.381,544.18 585.566,556.961 578.921,569.831 C578.246,571.14 577.272,572.202 576.653,573.576 C574.578,578.178 571.395,582.411 570.073,587.183 C568.96,591.204 569.85,595.78 569.85,600.111 C569.851,607.596 569.85,615.081 569.85,623.019" id="Fill-8" fill="#FFFFFF"></path>
            <path d="M317.14,514.402 C320.138,512.997 333.812,512.62 347.669,513.533 L347.669,596.053 L405.512,596.053 L405.512,622.928 L317.14,622.928 L317.14,514.402" id="Fill-9" fill="#FFFFFF"></path>
            <path d="M501.001,192.324 C500.137,187.548 499.657,182.575 498.489,177.908 C496.143,168.534 493.506,159.222 489.946,150.153 C484.881,137.247 478.983,124.811 471.75,113.011 C461.716,96.643 449.62,81.947 435.774,68.642 C430.642,63.71 425.213,59.112 419.593,54.836 C411.435,48.629 402.748,43.157 393.764,38.109 C383.665,32.433 373.106,27.981 362.268,24.063 C353.731,20.976 344.948,18.933 336.064,17.028 C327.745,15.244 319.34,13.827 310.983,13.499 C294.987,12.873 278.947,12.605 262.957,15.046 C256.202,16.077 249.373,16.983 242.755,18.467 C226.78,22.049 211.404,27.624 196.72,34.923 C191.623,37.457 186.737,40.42 181.793,43.252 C171.111,49.373 161.037,56.461 152.032,64.784 C138.96,76.867 126.234,89.378 117.143,105.051 C122.129,113.035 127.67,120.721 133.385,128.281 C138.618,135.204 143.83,142.145 149.214,148.95 C154.01,155.012 158.931,160.982 163.979,166.836 C168.394,171.956 172.691,177.178 177.122,182.287 C183.493,189.632 189.688,197.132 196.322,204.248 C196.961,204.934 197.468,205.86 198.83,206.028 C198.83,204.508 198.829,203.028 198.83,201.549 C198.841,173.388 198.85,145.228 198.863,117.067 C198.87,102.737 198.874,88.406 198.913,74.076 C198.918,72.493 198.33,70.682 200.608,69.286 C244.401,69.286 288.221,69.25 332.041,69.328 C337.962,69.338 343.86,69.269 349.83,70.015 C356.663,70.869 363.337,72.102 369.775,74.325 C387.192,80.339 399.274,92.05 405.698,109.351 C406.866,112.496 407.808,115.803 407.803,119.316 C407.752,156.641 407.737,193.967 407.828,231.292 C407.837,234.791 407.34,238.315 406.501,241.483 C403.719,251.972 398.979,261.368 390.23,268.599 C384.305,273.495 377.878,277.071 370.814,279.705 C362.498,282.806 354,284.543 344.978,284.326 C329.49,283.954 313.987,284.203 298.491,284.195 C291.017,284.191 283.543,284.194 275.501,284.194 C276.9,285.701 277.864,286.793 278.883,287.831 C291.773,300.958 305.032,313.665 319.235,325.409 C324.433,329.707 329.583,334.126 334.784,338.425 C344.245,346.247 354.261,353.391 363.951,360.94 C378.41,372.203 393.422,382.7 408.395,393.25 C410.498,394.731 412.491,396.482 414.945,397.182 C426.593,389.313 436.891,380.058 446.473,369.987 C448.398,367.963 449.971,365.595 451.959,363.642 C455.982,359.688 459.252,355.084 462.522,350.596 C473.006,336.208 481.483,320.624 488.266,304.152 C489.925,300.123 491.562,296.045 492.711,291.853 C495.061,283.281 497.388,274.718 499.117,265.955 C500.729,257.783 502.309,249.539 502.539,241.355 C502.997,225.027 503.95,208.63 501.001,192.324" id="Fill-61" fill="#FFFFFF"></path>
            <path d="M309.239,363.39 C298.189,354.119 287.619,344.27 275.749,334.88 L275.749,399.94 L202.667,399.94 L198.949,397.729 L198.949,261.02 C193.379,255.03 187.889,249.27 182.569,243.36 C175.189,235.14 167.949,226.79 160.619,218.52 C157.329,214.8 153.899,211.21 150.669,207.45 C145.409,201.34 140.299,195.1 135.039,188.989 C129.979,183.11 124.719,177.41 119.709,171.489 C113.669,164.33 107.959,156.89 101.769,149.869 C99.599,147.42 98.039,144.39 95.279,142.42 C92.269,150.86 90.329,159.53 87.939,168.07 C86.589,172.89 85.639,177.86 84.899,182.82 C84.139,187.97 83.319,193.14 82.569,198.28 C81.859,203.13 81.129,208.059 81.049,212.84 C80.839,224.41 80.209,235.999 81.649,247.61 C82.549,254.9 83.439,262.22 85.029,269.33 C88.389,284.34 93.679,298.8 100.119,312.77 C105.559,324.59 111.219,336.33 117.209,347.88 C121.289,355.77 124.259,364.04 126.459,372.52 C126.46,372.525 126.462,372.53 126.463,372.535 C127.454,394.64 123.262,430.628 90.51,453.016 C90.51,453.016 101.159,460.609 133.123,458.372 L133.209,458.369 C133.21,458.368 133.212,458.367 133.213,458.366 C155.781,456.776 188.946,450.293 236.48,432.795 L261.124,434.69 L261.092,434.671 C265.208,435.31 269.323,435.84 273.409,435.96 C286.139,436.35 298.899,436.89 311.669,435.41 C320.429,434.4 329.089,433.08 337.679,431.21 C351.159,428.26 364.149,423.86 377.119,417.55 C365.239,408.94 353.789,400.239 342.649,391.16 C331.419,382.01 320.329,372.7 309.239,363.39" id="Fill-62" fill="#FFFFFF"></path>
            <path d="M328.996,130.397 L274.003,130.397 L274.003,225.266 L326.807,225.266 C327.14,225.266 327.478,225.298 327.805,225.252 C332.084,224.641 333.369,222.389 333.841,219.308 C333.99,218.332 333.879,217.315 333.879,216.316 C333.88,190.851 333.802,165.385 333.955,139.921 C333.981,135.578 333.267,132.119 328.996,130.397" id="Fill-63" fill="#FFFFFF"></path>
        </g>
    </g>
</svg>
